<svg width="582" height="500" viewBox="0 0 582 500" fill="none" xmlns="http://www.w3.org/2000/svg">
<path opacity="0.2" d="M298.77 270.95V257.674L279.599 246.604V233.328L260.427 222.247V208.982L241.266 197.911L158.426 243.097L179.943 255.458V268.734L199.114 279.794V293.081L218.286 304.14V317.427L302.267 438.794C385.43 424.754 448.916 382.408 475.704 327.68C478.803 321.354 481.56 314.981 483.978 308.562L298.77 270.95Z" fill="#E76A35"/>
<path opacity="0.15" d="M180.685 12.1336C124.633 44.409 79.1895 130.907 79.1895 205.377C79.1895 249.627 95.2411 279.676 120.072 290.004L130.325 284.087L231.132 225.894L241.643 219.826C266.29 181.042 282.224 132.682 282.224 88.5726C282.181 14.1239 236.747 -20.1096 180.685 12.1336Z" fill="#E76A35"/>
<path opacity="0.15" d="M180.685 33.6717C133.585 60.7831 95.4028 133.467 95.4028 196.05C95.4028 258.632 133.585 287.4 180.685 260.31C227.786 233.22 265.979 160.504 265.979 97.9214C265.979 35.3393 227.797 6.57113 180.685 33.6717Z" fill="#E76A35"/>
<path opacity="0.15" d="M180.685 48.8525C140.04 72.3275 107.086 135.286 107.086 189.477C107.086 243.667 140.04 268.594 180.685 245.13C221.331 221.666 254.284 158.697 254.284 104.495C254.284 50.2941 221.342 25.3667 180.685 48.8525Z" fill="#E76A35"/>
<path d="M137.285 192.048C137.285 145.098 165.838 90.5522 201.051 70.2079C216.575 61.2568 230.787 60.4284 241.836 66.3241L227.517 58.04C216.328 51.5849 201.696 52.1229 185.731 61.3537C150.497 81.6979 121.955 136.243 121.955 183.193C121.955 208.895 130.508 226.991 144.031 234.78C146.344 236.104 154.94 241.085 158.447 243.107C145.419 235.028 137.285 217.169 137.285 192.048Z" fill="#E76A35"/>
<path opacity="0.3" d="M137.285 192.048C137.285 145.098 165.838 90.5522 201.051 70.2079C216.575 61.2568 230.787 60.4284 241.836 66.3241L227.517 58.04C216.328 51.5849 201.696 52.1229 185.731 61.3537C150.497 81.6979 121.955 136.243 121.955 183.193C121.955 208.895 130.508 226.991 144.031 234.78C146.344 236.104 154.94 241.085 158.447 243.107C145.419 235.028 137.285 217.169 137.285 192.048Z" fill="white"/>
<path d="M226.107 80.0518C231.669 87.4751 234.65 99.2879 233.983 114.651C232.38 152.306 209.475 197.104 182.837 214.63C174.746 219.955 167.226 222.161 160.75 221.569C168.84 232.327 182.396 233.866 198.168 223.484C224.816 205.958 247.721 161.192 249.324 123.495C250.421 97.2653 240.932 81.3751 226.107 80.0518Z" fill="#E76A35"/>
<path opacity="0.15" d="M226.107 80.0518C231.669 87.4751 234.65 99.2879 233.983 114.651C232.38 152.306 209.475 197.104 182.837 214.63C174.746 219.955 167.226 222.161 160.75 221.569C168.84 232.327 182.396 233.866 198.168 223.484C224.816 205.958 247.721 161.192 249.324 123.495C250.421 97.2653 240.932 81.3751 226.107 80.0518Z" fill="black"/>
<path d="M153.531 91.5846L168.862 100.439L170.088 98.7927L154.757 89.917C154.338 90.4872 153.94 90.9928 153.531 91.5846Z" fill="#E76A35"/>
<path d="M146.494 142.86L131.11 134.027C130.895 134.619 130.69 135.232 130.486 135.835L145.817 144.689C146.032 144.065 146.226 143.452 146.494 142.86Z" fill="#E76A35"/>
<path d="M216.425 54.1348L231.766 63.0213C232.39 63.1289 233.014 63.2365 233.628 63.3656L218.286 54.5113C217.673 54.3499 217.049 54.2316 216.425 54.1348Z" fill="#E76A35"/>
<path d="M139.448 168.863C139.566 168.196 139.695 167.518 139.825 166.851L124.494 157.997C124.354 158.664 124.225 159.331 124.106 160.009L139.448 168.863Z" fill="#E76A35"/>
<path d="M168.604 74.3714L183.934 83.2256C184.462 82.72 185.01 82.2143 185.527 81.7302L170.163 72.876C169.658 73.3601 169.088 73.8658 168.604 74.3714Z" fill="#E76A35"/>
<path d="M139.523 213.124C139.383 212.532 139.254 211.93 139.125 211.327L139.007 211.058L123.751 202.247C123.891 202.936 124.031 203.613 124.192 204.28L139.523 213.124Z" fill="#E76A35"/>
<path d="M203.052 54.5322C202.407 54.6613 201.74 54.8335 201.083 54.9948L216.425 63.8491C217.092 63.6769 217.759 63.5263 218.415 63.3972L203.052 54.5322Z" fill="#E76A35"/>
<path d="M202.008 69.6911L186.678 60.8691C186.355 61.052 186.043 61.2026 185.731 61.3855L184.795 61.9557L200.126 70.81L201.051 70.2398L202.008 69.6911Z" fill="#E76A35"/>
<path d="M140.534 112.51L155.865 121.365L156.769 119.686L141.438 110.832C141.115 111.37 140.825 111.929 140.534 112.51Z" fill="#E76A35"/>
<path d="M146.032 230.014C145.688 229.422 145.365 228.831 145.032 228.217L129.711 219.374C130.034 219.987 130.378 220.579 130.723 221.171L146.032 230.014Z" fill="#E76A35"/>
<path d="M121.955 183.366L137.285 192.231V192.048C137.285 191.391 137.285 190.714 137.285 190.047L121.944 181.192C121.944 181.859 121.944 182.537 121.944 183.193L121.955 183.366Z" fill="#E76A35"/>
<path d="M201.051 70.2075C165.839 90.5518 137.286 145.097 137.286 192.047C137.286 238.997 165.839 260.59 201.051 240.256C236.264 219.923 264.838 165.377 264.838 118.416C264.838 71.4555 236.274 49.8739 201.051 70.2075ZM249.292 123.494C247.689 161.149 224.784 205.947 198.136 223.473C171.487 240.998 151.207 224.656 152.81 186.969C154.413 149.282 177.339 104.516 203.967 86.9907C230.594 69.4651 250.906 85.8073 249.292 123.494Z" fill="#E76A35"/>
<g opacity="0.15">
<path d="M188.001 101.16C188.517 100.59 189.023 100.009 189.55 99.4497L185.516 81.7305C184.978 82.2146 184.44 82.7095 183.923 83.2151L188.001 101.16Z" fill="black"/>
<path d="M200.115 70.7682V89.7677C200.739 89.2836 201.363 88.8102 201.998 88.3584V69.6816L201.051 70.2088L200.115 70.7682Z" fill="black"/>
<path d="M213.079 82.215C213.768 81.9461 214.456 81.6986 215.134 81.4835L218.362 63.3877C217.705 63.5168 217.038 63.6674 216.371 63.8288L213.079 82.215Z" fill="black"/>
<path d="M161.094 147.594L161.772 145.808L146.495 142.85C146.28 143.452 146.065 144.055 145.86 144.657L161.094 147.594Z" fill="black"/>
<path d="M168.334 130.8L169.195 129.079L156.758 119.676L155.865 121.365L168.334 130.8Z" fill="black"/>
<path d="M262.224 95.8672L248.7 108.551C248.808 109.305 248.905 110.068 248.991 110.865L262.772 97.9543C262.568 97.2658 262.407 96.5557 262.224 95.8672Z" fill="black"/>
<path d="M153.273 180.827L137.307 190.036C137.307 190.714 137.307 191.381 137.307 192.048V192.231L153.079 183.129C153.111 182.366 153.197 181.591 153.273 180.827Z" fill="black"/>
<path d="M155.854 165.228C156.016 164.55 156.188 163.872 156.349 163.184L139.814 166.831C139.684 167.498 139.555 168.176 139.437 168.843L155.854 165.228Z" fill="black"/>
<path d="M225.785 80.0415C226.441 80.0953 227.076 80.1706 227.7 80.2782L233.638 63.3121C233.014 63.183 232.39 63.0646 231.756 62.957L225.785 80.0415Z" fill="black"/>
<path d="M244.547 94.157C244.849 94.7918 245.139 95.4588 245.419 96.1366L256.5 81.2146C256.167 80.6121 255.811 80.0311 255.424 79.4609L244.547 94.157Z" fill="black"/>
<path d="M236.715 84.1627C237.221 84.55 237.716 84.9589 238.2 85.4L246.549 69.4129C246.043 69.0148 245.537 68.6382 245.01 68.2725L236.715 84.1627Z" fill="black"/>
<path d="M177.34 115.136L178.501 113.382L170.078 98.7832L168.851 100.44L177.34 115.136Z" fill="black"/>
<path d="M214.434 208.938C213.929 209.53 213.359 210.1 212.896 210.66L216.93 228.433C217.468 227.949 218.006 227.422 218.523 226.916L214.434 208.938Z" fill="black"/>
<path d="M234.434 178.374C234.155 178.955 233.864 179.525 233.574 180.095L246.043 189.52L246.914 187.809L234.434 178.374Z" fill="black"/>
<path d="M225.333 194.49L224.171 196.255L232.616 210.886C233.025 210.337 233.445 209.81 233.843 209.24L225.333 194.49Z" fill="black"/>
<path d="M241.622 161.172C241.406 161.774 241.202 162.377 240.976 162.969L256.253 165.916C256.468 165.314 256.673 164.711 256.877 164.109L241.622 161.172Z" fill="black"/>
<path d="M246.667 143.323C246.527 144.001 246.387 144.678 246.226 145.345L262.687 141.741C262.805 141.064 262.912 140.397 263.031 139.729L246.667 143.323Z" fill="black"/>
<path d="M264.838 116.438L249.174 125.421C249.174 126.174 249.077 126.927 249.023 127.691L264.838 118.6V118.417C264.838 117.75 264.838 117.094 264.838 116.438Z" fill="black"/>
<path d="M201.998 239.686V220.708C201.374 221.192 200.739 221.666 200.115 222.117V240.794L201.051 240.256C201.363 240.073 201.686 239.869 201.998 239.686Z" fill="black"/>
<path d="M157.049 215.19C156.758 214.533 156.479 213.856 156.21 213.146L145.032 228.207C145.354 228.821 145.699 229.423 146.043 230.004L157.049 215.19Z" fill="black"/>
<path d="M164.72 225.786C164.225 225.377 163.741 224.947 163.268 224.484L154.876 240.536C155.371 240.945 155.877 241.332 156.393 241.709L164.72 225.786Z" fill="black"/>
<path d="M188.668 228.412C187.98 228.67 187.302 228.896 186.624 229.111L183.396 247.153C184.064 247.024 184.731 246.884 185.398 246.723L188.668 228.412Z" fill="black"/>
<path d="M175.704 230.38C175.059 230.316 174.435 230.219 173.811 230.101L167.937 246.991C168.561 247.142 169.185 247.26 169.809 247.368L175.704 230.38Z" fill="black"/>
<path d="M153.24 200.31C153.154 199.536 153.079 198.74 153.014 197.933L139.028 210.983C139.179 211.703 139.33 212.414 139.491 213.134L153.24 200.31Z" fill="black"/>
</g>
<path d="M218.265 317.438L145.387 275.361V235.522L160.728 244.377L179.921 255.469V268.745L199.093 279.804V293.091L218.265 304.151V317.438Z" fill="#263238"/>
<path d="M160.75 244.399L241.266 197.911L260.427 208.982L179.921 255.469L160.75 244.399Z" fill="#455A64"/>
<path d="M179.921 255.469V268.745L260.427 222.257V208.981L179.921 255.469Z" fill="#37474F"/>
<path d="M180 268.487L260.506 222L279.677 233.07L199.172 279.547L180 268.487Z" fill="#455A64"/>
<path d="M199.093 279.805V293.092L279.599 246.604V233.328L199.093 279.805Z" fill="#37474F"/>
<path d="M199.093 293.091L279.599 246.604L298.77 257.674L218.264 304.151L199.093 293.091Z" fill="#455A64"/>
<path d="M218.265 304.151V317.438L298.77 270.951V257.675L218.265 304.151Z" fill="#37474F"/>
<path d="M241.32 118.965C239.717 156.62 216.801 201.418 190.163 218.955C180.266 225.463 171.25 227.303 163.891 225.098C156.36 218.223 152.057 205.055 152.81 186.991C154.424 149.336 177.339 104.538 203.967 87.0126C213.875 80.4929 222.912 78.664 230.26 80.8802C237.834 87.7657 242.095 100.891 241.32 118.965Z" fill="#E76A35"/>
<path opacity="0.9" d="M241.32 118.965C239.717 156.62 216.801 201.418 190.163 218.955C180.266 225.463 171.25 227.303 163.891 225.098C156.36 218.223 152.057 205.055 152.81 186.991C154.424 149.336 177.339 104.538 203.967 87.0126C213.875 80.4929 222.912 78.664 230.26 80.8802C237.834 87.7657 242.095 100.891 241.32 118.965Z" fill="white"/>
<path opacity="0.1" d="M190.045 199.654C181.729 200.617 174.033 204.529 168.356 210.682C165.289 213.974 162.787 217.751 160.954 221.86C161.839 223.017 162.822 224.097 163.891 225.087C165.475 225.55 167.106 225.832 168.754 225.927C169.184 224.851 169.507 223.721 169.884 222.634C171.744 217.575 175.06 213.179 179.413 209.999C183.766 206.819 188.962 204.998 194.348 204.765C198.038 204.668 201.696 205.335 205.365 205.625C206.817 204.022 208.237 202.398 209.668 200.633C203.17 200.3 196.468 199.009 190.045 199.654ZM188.453 144.56C195.984 145.539 204.203 145.959 210.787 142.107C218.243 137.739 221.782 129.079 225.376 121.236C228.722 113.952 233.294 106.26 240.599 103.441C239.082 93.253 235.446 85.5822 230.249 80.8485C226.705 79.8285 222.969 79.6698 219.351 80.3858C215.706 84.5593 213.051 89.502 211.583 94.8452C209.862 100.87 209.26 107.271 206.495 112.876C203.679 118.512 198.9 122.924 193.057 125.281C188.453 127.11 183.45 127.551 178.555 128.304C175.14 128.808 171.765 129.549 168.453 130.52C165.897 135.596 163.62 140.807 161.632 146.131C162.953 145.455 164.327 144.89 165.741 144.442C173.046 142.193 180.922 143.592 188.453 144.56ZM196.156 106.905C198.566 102.742 199.383 97.8899 200.707 93.253C201.18 91.5209 201.782 89.8318 202.342 88.1427C200.62 89.3548 198.913 90.6745 197.221 92.1018C194.789 98.0082 192.423 103.936 187.936 108.39C185.649 110.63 182.919 112.368 179.921 113.49C179.355 113.679 178.771 113.813 178.178 113.888C177.081 115.502 176.005 117.151 174.951 118.837C177.378 118.642 179.783 118.232 182.137 117.61C187.966 115.861 192.955 112.043 196.166 106.873L196.156 106.905ZM241.341 113.436C239.237 114.526 237.331 115.963 235.704 117.685C231.702 122.075 229.55 127.766 227.097 133.188C223.676 140.913 219.211 148.778 211.777 152.78C206.828 155.437 201.019 156.104 195.456 156.255C184.859 156.545 174.101 155.179 163.74 157.449C161.507 157.937 159.325 158.632 157.221 159.525C156.504 162.1 155.876 164.664 155.338 167.218C157.751 165.941 160.303 164.948 162.944 164.259C178.254 160.386 195.22 168.885 209.884 163.183C220.642 158.977 227.194 148.293 232.476 138.03C234.628 133.845 236.941 129.423 240.653 126.647C240.94 124.087 241.141 121.548 241.255 119.03C241.395 117.04 241.417 115.2 241.384 113.404L241.341 113.436ZM203.149 176.147C194.865 176.448 186.591 175.674 178.307 175.555C174.063 175.324 169.808 175.76 165.698 176.846C162.101 178.063 158.717 179.838 155.672 182.107C154.736 182.774 153.832 183.463 152.939 184.162C152.874 185.12 152.81 186.066 152.767 187.002C152.304 197.922 153.692 207.035 156.521 214.071C158.35 212.484 159.976 210.677 161.363 208.692C167.054 200.999 172.541 192.489 181.169 188.369C190.432 183.947 201.352 185.529 211.422 183.506C215.827 182.606 220.059 181.004 223.956 178.761C225.548 175.778 227.05 172.737 228.463 169.638C228.033 169.896 227.592 170.144 227.151 170.391C219.867 174.383 211.465 175.814 203.192 176.115L203.149 176.147Z" fill="#E76A35"/>
<path d="M290.805 102.562C290.805 106.22 290.117 109.469 285.641 110.255C290.224 110.448 290.547 113.482 290.805 117.721C290.956 113.515 291.354 110.448 295.507 110.255C291.225 109.545 290.805 106.22 290.805 102.562Z" fill="#E76A35"/>
<path d="M186.383 297.302C186.383 300.96 185.695 304.209 181.219 304.994C185.802 305.188 186.125 308.222 186.383 312.46C186.534 308.243 186.932 305.188 191.085 304.994C186.781 304.273 186.383 300.96 186.383 297.302Z" fill="#E76A35"/>
<path d="M152.742 184.596C152.742 186.199 152.44 187.608 150.482 187.952C152.484 188.038 152.634 189.383 152.742 191.18C152.806 189.34 152.978 187.952 154.797 187.952C152.914 187.64 152.742 186.199 152.742 184.596Z" fill="#E76A35"/>
<path d="M143.941 190.89C143.941 194.537 143.242 197.786 138.777 198.571C143.36 198.765 143.683 201.799 143.941 206.048C144.081 201.831 144.479 198.776 148.642 198.571C144.339 197.915 143.941 194.537 143.941 190.89Z" fill="#E0E0E0"/>
<path d="M139.745 172.558C139.745 174.44 139.39 176.097 137.099 176.506C139.444 176.603 139.616 178.174 139.745 180.336C139.821 178.184 140.025 176.603 142.166 176.506C139.95 176.14 139.745 174.44 139.745 172.558Z" fill="#E0E0E0"/>
<path d="M278.379 91.5674C278.379 93.7191 278.325 95.7632 275.238 96.2473C278.465 96.2473 278.25 98.2592 278.412 100.841C278.498 98.2592 278.724 96.4087 281.273 96.2904C278.637 95.8493 278.713 94.6336 278.379 91.5674Z" fill="#E0E0E0"/>
<path d="M305.211 191.138C304.985 195.172 304.662 196.915 301.015 197.399C304.727 197.604 305.039 200.067 305.254 203.499C305.372 200.067 305.674 197.571 309.062 197.399C305.577 196.84 305.491 195.226 305.211 191.138Z" fill="#E0E0E0"/>
<path d="M171.558 297.334C171.429 299.69 171.246 300.701 169.116 300.992C171.268 301.11 171.462 302.53 171.591 304.531C171.655 302.53 171.827 301.078 173.807 300.992C171.806 300.648 171.72 299.722 171.558 297.334Z" fill="#E0E0E0"/>
<path d="M297.594 98.8184C297.594 100.12 297.594 101.368 295.689 101.659C297.669 101.659 297.518 102.874 297.615 104.434C297.669 102.874 297.798 101.755 299.337 101.68C297.744 101.411 297.787 100.68 297.594 98.8184Z" fill="#E0E0E0"/>
<path d="M301.65 202.864C301.65 204.155 301.65 205.403 299.746 205.694C301.714 205.694 301.564 206.92 301.661 208.48C301.714 206.92 301.854 205.791 303.393 205.726C301.8 205.446 301.843 204.715 301.65 202.864Z" fill="#E0E0E0"/>
<path d="M181.488 292.202C181.488 293.493 181.488 294.741 179.584 295.032C181.564 295.032 181.413 296.247 181.51 297.807C181.564 296.247 181.703 295.128 183.242 295.053C181.671 294.795 181.714 294.053 181.488 292.202Z" fill="#E0E0E0"/>
<path d="M452.087 263.88L485.966 244.321L537.111 273.842L561.652 259.673L510.516 230.152L527.128 220.555L500.231 205.009L483.62 214.606L453.97 197.511L429.419 211.69L459.037 228.829L395.874 265.235L415.637 276.639L575.057 319.437L578.155 317.651C579.676 311.54 580.934 305.304 581.931 298.942L452.087 263.88Z" fill="#263238"/>
<path d="M455.272 113.809L454.002 114.541V73.2068L438.661 64.3526L419.683 75.3047L435.336 16.4558L420.005 7.60156L393.615 22.8356L350.968 182.298V205.16L366.299 214.014L414.164 186.365V202.836L429.505 211.69L453.97 197.51V163.341L470.57 153.756V122.664L455.272 113.809ZM414.164 137.575L401.178 145.106L414.164 96.2407V137.575Z" fill="#E76A35"/>
<path opacity="0.3" d="M455.272 113.809L454.002 114.541V73.2068L438.661 64.3526L419.683 75.3047L435.336 16.4558L420.005 7.60156L393.615 22.8356L350.968 182.298V205.16L366.299 214.014L414.164 186.365V202.836L429.505 211.69L453.97 197.51V163.341L470.57 153.756V122.664L455.272 113.809ZM414.164 137.575L401.178 145.106L414.164 96.2407V137.575Z" fill="black"/>
<path d="M453.992 132.25V73.2071L429.452 87.376V146.429L395.562 165.988L435.336 16.4561L408.946 31.6901L366.299 191.152V213.971L429.452 177.521V211.69L453.992 197.511V163.342L470.603 153.756V122.664L453.992 132.25Z" fill="#E76A35"/>
<path opacity="0.3" d="M453.992 132.25V73.2071L429.452 87.376V146.429L395.562 165.988L435.336 16.4561L408.946 31.6901L366.299 191.152V213.971L429.452 177.521V211.69L453.992 197.511V163.342L470.603 153.756V122.664L453.992 132.25Z" fill="white"/>
<path d="M435.336 16.4558L420.005 7.60156L393.615 22.8356L408.946 31.6898L435.336 16.4558Z" fill="#E76A35"/>
<path opacity="0.5" d="M435.336 16.4558L420.005 7.60156L393.615 22.8356L408.946 31.6898L435.336 16.4558Z" fill="white"/>
<path d="M438.661 64.3525L453.992 73.2068L429.452 87.3757L418.198 80.8776L419.683 75.3047L438.661 64.3525Z" fill="#E76A35"/>
<path opacity="0.5" d="M438.661 64.3525L453.992 73.2068L429.452 87.3757L418.198 80.8776L419.683 75.3047L438.661 64.3525Z" fill="white"/>
<path d="M429.451 146.428L414.11 137.574L401.124 145.073L395.562 165.987L429.451 146.428Z" fill="#E76A35"/>
<path opacity="0.5" d="M429.451 146.428L414.11 137.574L401.124 145.073L395.562 165.987L429.451 146.428Z" fill="white"/>
<path d="M470.603 122.664L455.272 113.81L453.992 114.541V132.25L470.603 122.664Z" fill="#E76A35"/>
<path opacity="0.5" d="M453.992 132.25L470.603 122.664L455.272 113.81L453.992 114.541V132.25Z" fill="white"/>
<path d="M366.299 191.152L350.968 182.298L393.615 22.8359L408.946 31.6902L366.299 191.152Z" fill="#E76A35"/>
<path opacity="0.15" d="M366.299 191.152L350.968 182.298L393.615 22.8359L408.946 31.6902L366.299 191.152Z" fill="black"/>
<path d="M176.159 401.119L149.231 385.573L132.63 395.159L103.034 378.074L78.483 392.243L108.08 409.328L44.9272 445.788L64.6906 457.203L224.121 500L250.511 484.766L101.119 444.443L135.008 424.874L186.143 454.406L210.694 440.226L159.548 410.705L176.159 401.119Z" fill="#263238"/>
<path d="M104.304 294.363L103.034 295.105V253.728L87.6924 244.874L68.7144 255.88L84.368 197.031L69.0372 188.177L42.6466 203.389L0 362.862V385.681L15.3739 394.535L63.1953 366.929V383.389L78.5262 392.244L103.077 378.075V343.895L119.677 334.309V303.217L104.304 294.363ZM63.1523 318.128L50.1668 325.659L63.1523 276.837V318.128Z" fill="#E76A35"/>
<path opacity="0.3" d="M104.304 294.363L103.034 295.105V253.728L87.6924 244.874L68.7144 255.88L84.368 197.031L69.0372 188.177L42.6466 203.389L0 362.862V385.681L15.3739 394.535L63.1953 366.929V383.389L78.5262 392.244L103.077 378.075V343.895L119.677 334.309V303.217L104.304 294.363ZM63.1523 318.128L50.1668 325.659L63.1523 276.837V318.128Z" fill="black"/>
<path d="M103.034 312.814V253.761L78.4829 267.93V326.983L44.5936 346.542L84.3785 197.01L57.988 212.244L15.3306 371.706V394.536L78.4829 358.075V392.244L103.034 378.075V343.895L119.634 334.31V303.218L103.034 312.814Z" fill="#E76A35"/>
<path opacity="0.3" d="M103.034 312.814V253.761L78.4829 267.93V326.983L44.5936 346.542L84.3785 197.01L57.988 212.244L15.3306 371.706V394.536L78.4829 358.075V392.244L103.034 378.075V343.895L119.634 334.31V303.218L103.034 312.814Z" fill="white"/>
<path d="M84.3786 197.01L69.037 188.155L42.6465 203.389L57.9881 212.244L84.3786 197.01Z" fill="#E76A35"/>
<path opacity="0.5" d="M84.3786 197.01L69.037 188.155L42.6465 203.389L57.9881 212.244L84.3786 197.01Z" fill="white"/>
<path d="M87.6926 244.906L103.034 253.76L78.4834 267.929L67.23 261.442L68.7147 255.869L87.6926 244.906Z" fill="#E76A35"/>
<path opacity="0.5" d="M87.6926 244.906L103.034 253.76L78.4834 267.929L67.23 261.442L68.7147 255.869L87.6926 244.906Z" fill="white"/>
<path d="M78.483 326.982L63.1521 318.128L50.1666 325.627L44.5938 346.541L78.483 326.982Z" fill="#E76A35"/>
<path opacity="0.5" d="M78.483 326.982L63.1521 318.128L50.1666 325.627L44.5938 346.541L78.483 326.982Z" fill="white"/>
<path d="M119.635 303.218L104.304 294.363L103.034 295.106V312.814L119.635 303.218Z" fill="#E76A35"/>
<path opacity="0.5" d="M103.034 312.814L119.635 303.218L104.304 294.363L103.034 295.106V312.814Z" fill="white"/>
<path d="M15.3308 371.706L0 362.863L42.6466 203.39L57.9882 212.244L15.3308 371.706Z" fill="#E76A35"/>
<path opacity="0.15" d="M15.3308 371.706L0 362.863L42.6466 203.39L57.9882 212.244L15.3308 371.706Z" fill="black"/>
<path d="M363.048 377.174C358.758 375.216 354.218 373.858 349.557 373.139C346.706 372.667 343.793 372.692 340.95 373.215C338.926 373.629 336.965 374.309 335.119 375.237C328.793 378.379 327.879 381.875 327.674 384.834C327.47 387.792 329.105 391.752 334.334 395.409L424.07 458.271C440.404 449.569 455.584 438.857 469.256 426.383C430.267 408.266 366.642 378.712 363.048 377.174Z" fill="#263238"/>
<path d="M391.763 244.876C397.271 245.952 399.423 246.328 402.059 250.89C404.694 255.452 409.17 272.407 410.396 275.925C411.623 279.443 411.989 280.723 411.472 284.639C410.945 288.728 408.535 295.99 407.524 299.97C407.05 301.81 406.738 303.607 406.394 305.489C405.918 307.416 405.307 309.307 404.565 311.148C404.248 312.046 403.694 312.841 402.962 313.451C402.51 313.849 401.886 313.892 401.456 314.257C401.026 314.623 400.907 315.269 400.305 315.57C399.702 315.871 398.863 315.699 398.272 316.043C397.688 316.471 397.081 316.866 396.453 317.227C395.876 317.395 395.348 317.701 394.915 318.12C394.528 318.539 394.162 319.486 393.463 319.411C392.763 319.335 392.559 318.582 392.527 317.937C392.551 316.67 392.981 315.445 393.753 314.44C394.439 313.322 395.19 312.244 396.002 311.213C396.792 310.256 397.358 309.135 397.658 307.931C397.906 307.125 397.83 306.102 396.787 306.565C395.571 307.125 394.28 308.286 392.817 308.028C391.806 307.856 391.741 307.06 392.333 306.393C393.306 305.294 394.197 304.125 395.001 302.896C395.819 301.638 396.496 300.314 397.346 299.088C397.805 298.451 398.305 297.843 398.842 297.27C400.326 295.656 400.262 293.451 400.434 291.396C400.671 288.545 400.875 281.229 400.875 281.229L394.205 264.801L391.763 244.876Z" fill="#FFBDA7"/>
<path d="M400.445 291.396C400.51 288.007 400.649 284.618 400.778 281.229C398.627 276 396.324 270.245 394.216 264.801C396.54 270.245 398.799 275.713 400.994 281.207C400.822 284.607 400.671 288.007 400.445 291.396Z" fill="white"/>
<path d="M354.571 372.461C356.464 371.794 357.874 371.729 357.852 372.665C357.596 373.819 357.187 374.933 356.636 375.979L355.13 378.055L354.409 380.1C354.409 380.1 353.527 381.175 353.473 381.283C353.42 381.391 353.129 377.464 353.129 377.464C353.129 377.464 352.064 372.945 354.571 372.461Z" fill="#263238"/>
<path d="M374.904 292.59C374.904 292.59 370.601 297.7 368.051 307.275C365.699 316.174 363.902 325.211 362.672 334.333C362.059 338.41 361.069 343.553 359.606 351.547C358.476 357.7 354.926 376.571 354.926 376.571C354.926 376.571 356.97 379.97 359.444 381.003C362.995 382.488 366.416 381.81 366.868 378.636C366.868 378.636 369.213 374.892 372.774 365.231C374.486 360.796 375.853 356.235 376.862 351.59C377.215 348.674 377.319 345.733 377.174 342.8L391.462 317.959C393.041 315.237 394.933 312.71 397.099 310.428C398.437 309.058 399.487 307.434 400.187 305.651C402.554 299.196 399.111 290.514 399.111 290.514L374.904 292.59Z" fill="#263238"/>
<path d="M362.726 334.322C360.423 348.47 357.787 362.563 354.979 376.614C357.454 362.499 360.101 348.416 362.726 334.322Z" fill="white"/>
<path d="M357.153 387.49L356.389 387.34C356.443 387.049 362.166 357.593 366.169 345.22C370.171 332.848 380.66 308.276 380.768 308.028L381.489 308.34C381.381 308.577 370.913 333.139 366.922 345.468C362.93 357.797 357.218 387.2 357.153 387.49Z" fill="black"/>
<path d="M393.71 300.863H370.246C369.388 302.947 368.669 305.085 368.095 307.265C365.925 315.458 364.255 323.775 363.092 332.17C363.662 336.011 364.308 339.96 364.899 342.671C366.481 349.836 367.471 354.892 368.718 357.851C369.923 360.352 371.345 362.742 372.968 364.995C374.639 360.649 375.973 356.182 376.959 351.633C377.312 348.717 377.416 345.776 377.272 342.843L391.258 318.583L392.258 314.763C395.733 308.986 395.335 304.65 393.71 300.863Z" fill="black"/>
<path d="M335.335 382.004C334.915 381.81 334.399 383.456 334.356 384.048C334.313 384.64 335.432 387.05 338.369 388.825C341.306 390.6 346.351 391.59 348.245 392.182C350.138 392.773 351.655 394.333 354.151 395.549C356.368 396.625 359.713 397.195 361.177 396.539C361.459 396.37 361.701 396.143 361.887 395.872C362.073 395.6 362.198 395.292 362.252 394.968C362.65 393.752 362.618 393.473 362.468 393.43L335.335 382.004Z" fill="#37474F"/>
<path d="M363.511 390.739C363.318 391.982 362.907 393.18 362.295 394.279C361.868 394.601 361.38 394.834 360.861 394.965C360.342 395.097 359.802 395.123 359.272 395.043C356.994 394.879 354.8 394.115 352.914 392.826C351.474 391.889 349.919 391.141 348.288 390.599C346.044 390.058 343.84 389.361 341.693 388.512C340.091 387.836 338.601 386.922 337.271 385.801C336.195 384.79 335.195 383.649 335.302 382.229C335.544 381.335 336.056 380.538 336.769 379.946C337.482 379.355 338.36 378.999 339.283 378.926C341.05 378.837 342.818 379.104 344.479 379.712C346.094 380.258 347.765 380.619 349.461 380.788C350.622 380.884 351.989 381.863 352.893 380.841C353.968 379.658 354.388 376.861 355.109 375.462C355.227 375.236 355.388 374.989 355.636 374.935C355.883 374.881 356.292 375.182 356.518 375.484C357.571 376.798 358.921 377.845 360.456 378.539C364.609 380.594 366.534 379.507 366.534 379.507L366.922 378.647C366.922 378.647 367.75 379.109 366.696 381.046C365.806 382.638 365.058 384.305 364.458 386.027C363.935 387.549 363.616 389.133 363.511 390.739Z" fill="#455A64"/>
<path d="M335.335 382.23C336.637 377.41 342.102 378.701 345.631 379.916C346.881 380.357 348.176 380.656 349.493 380.809C348.163 380.75 346.846 380.515 345.577 380.11C342.091 379.034 336.852 377.657 335.335 382.262V382.23Z" fill="white"/>
<path d="M345.254 379.927C343.479 380.089 342.995 382.961 342.995 382.961C344.585 383.815 346.316 384.377 348.105 384.618C349.349 384.834 350.629 384.577 351.693 383.898C352.758 383.22 353.531 382.168 353.861 380.95C354.614 378.55 353.925 375.194 353.785 374.107C353.704 373.734 353.77 373.343 353.971 373.018C354.172 372.693 354.491 372.459 354.861 372.364C354.557 372.393 354.261 372.483 353.993 372.631C353.725 372.779 353.491 372.98 353.304 373.222C353.117 373.464 352.982 373.742 352.908 374.039C352.833 374.336 352.821 374.645 352.871 374.946C352.925 376.237 352.871 378.787 352.322 379.637C351.774 380.487 349.03 380.863 345.254 379.927Z" fill="#455A64"/>
<path d="M389.73 292.59C392.314 295.644 393.826 299.461 394.033 303.456C394.211 307.337 392.993 311.153 390.601 314.215C389.708 327.297 387.126 352.482 387.126 352.482C390.58 356.033 391.43 358.335 393.474 364.704C394.69 368.577 399.251 381.025 400.381 384.489C394.334 385.231 391.042 391.245 391.042 391.245C391.042 391.245 380.391 375.516 375.27 366.264C371.473 359.422 369.719 356.926 368.589 352.881C367.191 347.835 366.814 345.231 365.566 336.743C364.318 328.254 363.124 317.453 362.511 309.083C361.898 300.713 361.435 291.869 361.435 291.869L389.73 292.59Z" fill="#263238"/>
<path d="M391.085 391.213C384.877 382.068 378.788 372.816 373.452 363.133C371.697 360.31 370.189 357.34 368.944 354.258C367.948 351.09 367.186 347.854 366.663 344.575C363.917 327.096 362.179 309.473 361.456 291.794L362.36 305.027C363.177 318.271 364.823 331.45 366.932 344.532C367.696 348.835 368.492 353.279 370.45 357.238C376.73 368.923 383.618 380.27 391.085 391.235V391.213Z" fill="white"/>
<path d="M376.034 356.56C372.903 348.577 369.149 305.123 369.342 290.104H368.557C368.492 295.129 368.869 303.316 369.514 312.299C366.965 311.008 365.319 308.641 365.319 296.742H364.533C364.533 308.706 366.093 311.6 369.579 313.203C370.891 330.997 373.237 351.578 375.302 356.861C378.369 364.672 394.366 391.062 394.517 391.288L395.195 390.879C395.034 390.643 379.079 364.316 376.034 356.56Z" fill="black"/>
<path d="M390.203 389.879C389.246 391.234 388.159 392.192 390.881 393.999C393.033 395.387 393.108 396.506 393.764 397.991C394.192 399.438 394.366 400.949 394.281 402.456C394.281 402.456 397.896 397.001 396.841 393.483C395.787 389.965 390.203 389.879 390.203 389.879Z" fill="#455A64"/>
<path d="M401.79 386.759C402.808 387.833 404.006 388.721 405.33 389.384C406.244 389.954 407.191 390.46 407.481 391.535C407.481 391.654 406.944 392.299 406.954 392.418C407.001 392.931 406.983 393.448 406.9 393.956C406.696 395.731 405.728 397.044 405.513 398.808C405.442 399.513 405.316 400.211 405.136 400.895C404.981 401.729 404.913 402.576 404.932 403.424C404.878 404.306 404.813 405.188 404.77 406.07C404.722 406.445 404.722 406.825 404.77 407.2C404.846 407.576 398.842 410.599 396.422 411.761C396.278 411.831 396.131 411.892 395.981 411.944C394.504 412.346 392.931 412.193 391.559 411.514C386.739 409.76 387.04 408.017 387.04 408.017C387.065 407.296 387.293 406.595 387.699 405.998C388.104 405.4 388.67 404.929 389.332 404.639C389.625 404.469 389.935 404.328 390.257 404.22C391.456 403.774 392.764 403.711 394.001 404.037C394.245 403.321 394.358 402.566 394.335 401.81C394.433 400.679 394.451 399.543 394.388 398.41C394.175 397.13 393.679 395.913 392.936 394.849C391.914 393.44 390.784 391.622 390.107 390.632C389.429 389.642 389.246 387.254 393.259 384.381C397.11 381.638 399.929 382.229 400.478 383.359C400.783 384.539 401.224 385.68 401.79 386.759Z" fill="#455A64"/>
<path d="M386.976 408.028C386.976 404.704 391.214 403.037 393.979 404.016C391.15 403.488 387.384 404.801 386.976 408.028Z" fill="white"/>
<path opacity="0.1" d="M391.43 405.758C391.751 404.937 392.359 404.261 393.14 403.854C393.424 403.886 393.704 403.94 393.979 404.015C393.495 404.478 391.763 405.166 391.43 405.758Z" fill="black"/>
<path d="M408.04 392.58C409.116 393.032 408.223 394.731 406.965 397.367C405.827 399.315 405.373 401.587 405.674 403.822C405.932 406.157 405.383 407.297 404.372 408.126C403.361 408.954 395.851 412.235 395.851 412.235C397.637 409.98 398.671 407.223 398.81 404.349C399.218 399.207 399.713 395.904 402.274 393.656C403.07 393.011 404.014 392.576 405.021 392.388C406.028 392.2 407.066 392.266 408.04 392.58Z" fill="black"/>
<path d="M386.976 408.018C387.094 409.029 389.966 411.073 393.355 411.03C396.744 410.987 397.035 410.266 397.562 406.296C398.089 402.327 398.455 396.807 400.176 394.462C401.898 392.117 404.157 390.697 407.46 391.557C407.836 391.74 408.858 392.762 408.482 393.709C408.482 393.709 408.482 392.956 407.126 392.558C405.964 392.224 404.576 392.257 402.64 393.935C400.37 395.882 399.864 400.476 399.606 404.414C399.348 408.351 398.121 412.128 394.862 412.483C393.454 412.673 392.023 412.554 390.666 412.134C389.31 411.714 388.061 411.003 387.008 410.051C386.804 409.39 386.793 408.685 386.976 408.018Z" fill="#37474F"/>
<path d="M367.546 220.175C367.106 219.557 366.836 218.835 366.76 218.08C366.685 217.326 366.807 216.564 367.115 215.871C367.664 214.473 368.804 212.999 372.129 211.278C376.088 209.233 386.954 207.77 392.333 214.882C393.108 215.958 382.414 236.022 382.941 240.186C380.165 237.27 371.01 227.017 371.01 227.017C368.858 226.092 367.524 225.307 367.061 223.263C366.894 222.208 367.064 221.128 367.546 220.175Z" fill="#263238"/>
<path d="M371.01 226.963C367.783 226.114 365.728 223.284 367.546 220.143C366.169 223.37 368.009 225.715 371.01 226.963Z" fill="white"/>
<path d="M367.545 220.175C366.19 218.69 366.523 216.302 367.545 214.709C368.732 213.164 370.316 211.971 372.128 211.256C371.302 211.732 370.504 212.256 369.74 212.827C367.492 214.387 365.813 217.668 367.588 220.175H367.545Z" fill="white"/>
<path d="M369.181 225.888C369.181 225.888 366.244 230.675 366.577 231.073C367.252 231.61 367.972 232.089 368.729 232.504L369.181 225.888Z" fill="#F0997A"/>
<path d="M369.181 225.888C368.449 227.426 367.567 228.879 366.846 230.406C366.749 230.654 366.545 230.944 366.685 231.116C366.87 231.329 367.087 231.511 367.33 231.654C367.04 231.493 366.556 231.364 366.491 230.976C367.083 229.136 367.994 227.414 369.181 225.888Z" fill="white"/>
<path d="M372.817 217.131C370.849 218.067 369.149 219.573 368.514 223.887C368.353 225.017 369.235 226.555 368.837 228.05C367.126 234.506 369.159 239.885 370.407 241.014C371.247 241.811 375.658 242.166 377.938 241.52C380.832 240.713 387.126 237.873 390.128 233.344C393.657 227.964 394.431 220.864 390.547 217.991C385.071 213.946 374.915 216.141 372.817 217.131Z" fill="#FFBDA7"/>
<path d="M368.535 223.887C368.535 225.35 369.396 226.781 368.901 228.276C367.987 232.44 367.922 237.389 370.429 241.014C367.675 237.507 367.675 232.407 368.729 228.233C369.224 226.813 368.406 225.361 368.535 223.93V223.887Z" fill="white"/>
<path d="M387.868 236.388L389.009 244.317C390.784 244.693 390.945 246.791 390.085 248.373L390.504 250.61L378.369 252.784L377.013 241.692L387.868 236.388Z" fill="#FFBDA7"/>
<path d="M370.666 241.175C371.741 241.746 373.947 242.165 377.024 241.735L376.841 240.164C375.865 240.53 374.861 240.818 373.839 241.025C372.795 241.232 371.725 241.283 370.666 241.175Z" fill="#F0997A"/>
<path d="M369.913 219.432C369.831 220.363 370.074 221.293 370.602 222.064C371.13 222.836 371.909 223.4 372.807 223.66C372.327 224.691 372.148 225.835 372.29 226.963C372.33 227.629 372.561 228.27 372.953 228.809C373.346 229.349 373.885 229.764 374.506 230.008C375.356 230.298 375.582 229.922 375.916 229.244C376.346 228.286 376.895 226.823 378.95 227.092C381.306 227.415 381.93 230.965 380.553 233.289C380.288 233.78 379.908 234.2 379.445 234.511C378.982 234.822 378.45 235.016 377.895 235.075C377.59 235.07 377.289 235.001 377.013 234.871C376.736 234.741 376.491 234.554 376.292 234.322C376.292 234.322 376.443 237.42 380.434 239.26C382.931 240.588 385.823 240.97 388.578 240.336C390.434 238.275 392.183 236.12 393.818 233.881C398.121 227.598 399.036 216.097 391.666 214.031C391.311 213.934 384.609 212.955 381.338 213.708C371.257 215.86 369.934 218.948 369.913 219.432Z" fill="#263238"/>
<path d="M388.105 213.225C387.214 213.867 386.602 214.826 386.395 215.904C386.303 216.442 386.354 216.994 386.542 217.506C386.731 218.018 387.051 218.471 387.471 218.82C389.622 220.509 392.979 218.54 393.377 216.044C393.829 213.096 390.279 211.611 388.105 213.225Z" fill="#E76A35"/>
<path d="M389.859 214.161C387.653 215.516 386.276 218.712 387.449 221.014C387.772 221.638 388.223 222.197 388.525 222.854C389.375 224.951 388.137 227.264 387.868 229.513C387.684 231.298 387.993 233.099 388.761 234.72C389.493 235.914 391.107 236.216 391.752 237.464C392.193 238.324 391.892 239.379 392.064 240.336C392.441 242.391 394.872 243.381 396.97 243.424C397.857 243.502 398.75 243.385 399.587 243.08C400.424 242.775 401.183 242.29 401.811 241.659C402.293 240.912 402.817 240.194 403.382 239.508C404.63 238.335 406.61 238.432 407.987 237.356C408.496 236.906 408.895 236.345 409.153 235.717C409.41 235.088 409.519 234.408 409.471 233.73C409.344 232.372 408.98 231.047 408.396 229.814C407.503 227.663 408.213 226.275 408.665 224.091C408.876 222.911 408.681 221.695 408.11 220.641C407.539 219.587 406.627 218.759 405.523 218.292C404.006 217.689 402.156 217.786 400.929 216.7C400.348 216.011 399.802 215.293 399.294 214.548C396.992 212.02 392.452 212.579 389.859 214.161Z" fill="#263238"/>
<path d="M398.519 250.804C398.036 249.489 397.27 248.296 396.275 247.309C395.281 246.322 394.082 245.565 392.764 245.091C391.688 244.768 389.009 244.316 389.009 244.316C389.622 245.715 388.589 246.64 386.771 247.06C384.437 247.608 380.876 247.662 378.455 246.059L377.465 245.446C374.824 246.095 372.217 246.878 369.654 247.791C369.127 248.039 366.212 249.018 361.629 259.314C359.671 263.714 360.252 268.179 363.856 271.352C364.06 274.139 362.263 280.411 362.263 280.411C361.35 285.646 361.14 290.979 361.639 296.269C361.639 296.269 363.791 301.971 380.854 301.907C394.055 301.907 400.693 295.451 400.693 295.451C400.531 292.224 395.453 280.895 395.959 277.087C396.744 271.535 401.833 261.584 398.519 250.804Z" fill="#E76A35"/>
<path d="M369.654 247.792C373.129 250.621 373.398 254.505 372.881 259.745C372.365 264.984 367.104 281.358 366.028 284.92C364.952 288.481 363.414 289.718 360.703 292.601C357.992 295.484 351.655 300.067 348.503 302.693C347.04 303.908 345.738 305.178 344.35 306.501C342.834 307.78 341.23 308.952 339.552 310.008C338.767 310.545 337.854 310.864 336.905 310.934C336.303 310.934 335.775 310.654 335.205 310.697C334.635 310.74 334.129 311.192 333.505 311.084C332.881 310.977 332.257 310.342 331.58 310.267C330.861 310.277 330.143 310.244 329.428 310.17C328.861 309.96 328.25 309.897 327.653 309.987C327.093 310.094 326.243 310.643 325.716 310.18C325.189 309.718 325.48 308.976 325.824 308.427C326.585 307.4 327.656 306.646 328.879 306.275C330.09 305.775 331.329 305.347 332.591 304.995C333.778 304.676 334.88 304.1 335.819 303.306C336.486 302.8 337.023 301.918 335.915 301.692C334.603 301.423 332.871 301.606 331.827 300.541C331.117 299.809 331.537 299.131 332.408 298.938C333.84 298.621 335.247 298.197 336.615 297.668C338.013 297.13 339.337 296.453 340.746 295.958C341.497 295.715 342.263 295.518 343.037 295.366C345.189 294.925 346.426 293.107 347.76 291.547C349.632 289.395 352.849 285.285 355.033 282.337L358.336 266.361C360.423 257.69 361.155 250.417 369.654 247.792Z" fill="#FFBDA7"/>
<path d="M372.86 259.745C372.021 264.478 370.867 269.151 369.407 273.731C369.299 274.107 369.181 274.473 369.073 274.807C367.75 279.293 366.469 283.338 365.996 284.909C365.028 288.136 363.661 289.47 361.391 291.837L360.671 292.59C357.841 295.592 351.623 300.057 348.47 302.693C347.018 303.908 345.706 305.167 344.328 306.49C342.809 307.773 341.202 308.948 339.519 310.008C338.733 310.541 337.82 310.857 336.873 310.923C336.27 310.977 335.743 310.643 335.173 310.686C334.603 310.729 334.097 311.181 333.473 311.073C332.849 310.966 332.225 310.331 331.547 310.267C330.829 310.273 330.11 310.237 329.396 310.159C328.828 309.954 328.218 309.891 327.621 309.976C327.448 309.976 327.244 310.094 327.029 310.17L326.76 310.256C326.639 310.301 326.512 310.33 326.383 310.342C326.263 310.366 326.139 310.363 326.02 310.333C325.901 310.303 325.79 310.248 325.695 310.17C325.103 309.653 325.447 308.976 325.792 308.427C326.552 307.4 327.624 306.645 328.847 306.275C330.057 305.771 331.297 305.34 332.559 304.984C333.746 304.666 334.848 304.089 335.786 303.295C336.453 302.789 336.991 301.918 335.883 301.681C334.571 301.412 332.838 301.595 331.806 300.541C331.085 299.799 331.504 299.121 332.376 298.927C333.808 298.612 335.215 298.188 336.582 297.658C337.981 297.12 339.315 296.442 340.714 295.958C341.463 295.708 342.229 295.51 343.005 295.366C345.157 294.925 346.394 293.096 347.728 291.547C349.6 289.395 352.817 285.275 355.012 282.327L358.304 266.35C360.391 257.636 361.155 250.363 369.622 247.749C370.496 248.457 371.226 249.326 371.773 250.31C373.215 252.849 373.247 255.936 372.86 259.745Z" fill="#FFBDA7"/>
<path d="M325.652 310.18C325.452 309.977 325.332 309.707 325.316 309.422C325.3 309.137 325.389 308.856 325.566 308.631C326.373 307.071 328.127 306.404 329.676 305.877C330.706 305.393 331.789 305.032 332.903 304.801C333.961 304.474 334.954 303.968 335.84 303.306C335.002 304.058 334.022 304.636 332.957 305.006C330.808 305.533 328.744 306.358 326.825 307.458C326.115 308.029 324.878 309.223 325.695 310.137L325.652 310.18Z" fill="white"/>
<path d="M331.827 300.584C330.493 299.056 333.075 298.863 334.044 298.54C336.604 297.884 338.863 296.474 341.381 295.764C342.672 295.567 343.907 295.101 345.007 294.398C346.76 293.01 348.643 290.223 350.095 288.47L354.937 282.305C356.012 276.926 357.723 268.545 359.003 263.08C360.37 256.625 362.468 249.729 369.654 247.792C362.575 249.804 360.51 256.657 359.197 263.123C357.906 268.674 356.357 276.797 355.141 282.488L350.257 288.642C348.761 290.406 346.922 293.139 345.103 294.57C343.989 295.275 342.739 295.741 341.435 295.936C338.917 296.636 336.626 298.013 334.065 298.626C333.086 298.938 330.526 299.078 331.827 300.616V300.584Z" fill="white"/>
<path opacity="0.3" d="M393.979 317.776C393.979 318.194 394.094 318.604 394.312 318.96C394.538 318.68 394.732 318.336 394.926 318.12C395.358 317.702 395.886 317.396 396.464 317.227C397.092 316.867 397.699 316.472 398.282 316.044C398.863 315.7 399.638 315.904 400.316 315.571C400.993 315.237 401.015 314.645 401.467 314.258C401.919 313.871 402.543 313.849 402.973 313.451C403.705 312.842 404.258 312.047 404.576 311.149C405.318 309.308 405.929 307.417 406.405 305.49C406.749 303.607 407.061 301.811 407.535 299.971C408.546 295.99 410.956 288.728 411.483 284.64C411.989 280.724 411.623 279.433 410.407 275.926C409.191 272.418 404.705 255.485 402.069 250.891C399.573 246.587 397.497 246.006 392.591 245.038L392.301 244.963L391.806 244.855L391.418 244.769L390.924 244.672L390.633 244.618L389.923 244.479L389.385 244.382H389.245H389.019L388.449 240.412H388.589C389.46 239.336 390.418 238.314 391.418 237.109C391.541 237.25 391.645 237.405 391.73 237.572C392.182 238.432 391.87 239.476 392.042 240.433C392.419 242.499 394.85 243.478 396.948 243.532C397.836 243.606 398.729 243.485 399.565 243.179C400.401 242.872 401.16 242.387 401.79 241.757C402.274 241.012 402.799 240.294 403.36 239.605C404.608 238.432 406.588 238.529 407.976 237.453C408.484 237.001 408.881 236.438 409.137 235.807C409.393 235.177 409.5 234.496 409.45 233.817C409.328 232.458 408.963 231.131 408.374 229.901C407.481 227.749 408.191 226.361 408.643 224.188C408.856 223.008 408.662 221.791 408.094 220.736C407.525 219.68 406.615 218.849 405.512 218.379C403.984 217.776 402.134 217.884 400.907 216.786C400.329 216.097 399.787 215.379 399.283 214.635C397.561 212.752 394.603 212.59 392.128 213.279C391.517 212.855 390.785 212.64 390.041 212.666C386.685 210.062 382.306 209.438 378.551 209.739C377.138 210.333 375.861 211.208 374.797 212.311C371.418 215.657 369.417 220.573 370.299 225.221C370.472 226.092 370.741 226.932 370.88 227.803C371.235 230.03 370.741 232.3 370.751 234.559C370.762 236.819 371.472 239.315 373.43 240.423C374.915 241.251 376.733 241.09 378.422 241.305C381.198 241.66 380.875 243.37 380.983 245.727C381.029 246.087 381 246.454 380.897 246.802C380.854 246.928 380.788 247.045 380.703 247.147C379.982 248.04 377.938 248.395 377.034 248.696C375.243 249.13 373.494 249.72 371.806 250.46C371.031 250.854 370.36 251.425 369.848 252.128C367.793 255.011 366.921 258.443 366.05 261.811C365.243 264.93 364.393 268.05 363.5 271.149C362.697 273.96 361.858 276.758 360.983 279.54C360.302 282.073 359.281 284.501 357.949 286.759C356.281 289.309 353.893 291.289 351.741 293.462C346.868 298.389 342.79 304.694 336.27 307.061C333.764 307.964 331.074 308.212 328.503 308.9C327.61 309.137 326.599 309.61 326.351 310.439C326.48 310.427 326.606 310.398 326.728 310.353L326.997 310.267C327.212 310.191 327.416 310.116 327.588 310.073C328.186 309.988 328.796 310.051 329.363 310.256C330.078 310.334 330.796 310.37 331.515 310.364C332.193 310.428 332.699 311.052 333.441 311.17C334.183 311.289 334.517 310.826 335.141 310.783C335.765 310.74 336.217 311.074 336.841 311.02C337.788 310.954 338.701 310.638 339.487 310.105C341.17 309.045 342.776 307.87 344.296 306.587C345.673 305.264 346.986 304.005 348.438 302.79C351.59 300.154 357.809 295.689 360.638 292.687L361.359 291.934C363.618 289.578 364.985 288.255 365.953 285.017C366.426 283.446 367.707 279.401 369.03 274.914L369.364 273.839C369.86 274.443 370.12 275.208 370.095 275.99C370.493 281.219 371.741 286.512 372.591 291.719C373.194 295.431 373.807 299.142 374.086 302.886C374.302 305.598 374.334 308.266 374.377 311.02L374.635 330.385C374.635 331.461 374.635 332.537 374.689 333.677C374.703 336.725 374.911 339.769 375.313 342.79C375.664 345.452 376.243 348.08 377.045 350.643C377.239 351.267 377.443 351.891 377.669 352.515C379.896 358.701 383.393 364.35 386.76 369.923C390.176 375.877 393.241 382.027 395.937 388.341C396.49 389.445 396.895 390.617 397.142 391.827C397.486 393.914 396.916 396.033 396.755 398.142C396.593 400.251 396.83 402.273 396.755 404.339C396.801 406.418 396.199 408.459 395.033 410.181C394.192 411.264 393.028 412.052 391.709 412.429C392.743 412.609 393.797 412.642 394.84 412.526C395.441 412.471 396.02 412.271 396.529 411.945C399.191 410.822 401.791 409.558 404.318 408.158C405.329 407.351 405.878 406.2 405.63 403.855C405.32 401.62 405.771 399.346 406.911 397.4C407.601 396.217 408.129 394.947 408.481 393.623C408.75 392.709 407.804 391.762 407.405 391.579C407.137 390.503 406.19 389.987 405.254 389.428C403.933 388.765 402.739 387.877 401.725 386.803C401.143 385.72 400.691 384.571 400.38 383.381C400.242 383.12 400.029 382.906 399.767 382.768C398.11 378.002 394.506 368.094 393.441 364.726C391.44 358.346 390.547 356.044 387.093 352.494C387.093 352.494 388.998 333.903 390.106 320.38L391.44 318.045C391.58 317.798 391.72 317.561 391.87 317.324C393.364 314.889 395.109 312.617 397.077 310.546C397.271 310.342 397.465 310.105 397.658 309.879C397.368 310.364 397.088 310.848 396.765 311.321C395.485 313.279 393.882 315.377 393.979 317.776ZM400.563 295.592L400.692 295.474C400.627 294.774 400.494 294.082 400.294 293.408C400.047 292.494 399.702 291.407 399.326 290.234C399.208 289.869 399.078 289.492 398.949 289.159C398.508 287.846 398.035 286.447 397.605 285.092C397.465 284.672 397.336 284.253 397.217 283.844C397.099 283.435 396.937 282.94 396.819 282.51C396.701 282.08 396.647 281.897 396.572 281.595C396.572 281.499 396.518 281.391 396.496 281.294C396.475 281.197 396.4 280.896 396.357 280.713C396.27 280.358 396.195 280.025 396.141 279.702L396.077 279.347C396.072 279.264 396.072 279.182 396.077 279.099C396.045 278.943 396.024 278.785 396.012 278.626V278.303C396.002 278.11 396.002 277.916 396.012 277.722C396.001 277.536 396.001 277.349 396.012 277.163C396.303 275.493 396.702 273.843 397.206 272.225C397.551 270.977 397.938 269.643 398.282 268.223C399.304 270.127 400.294 272.031 401.284 273.946C402.134 275.46 402.854 277.044 403.436 278.68C404.619 282.402 404.329 286.437 403.877 290.321C403.404 294.751 402.422 299.112 400.95 303.317C401.265 300.739 401.134 298.126 400.563 295.592Z" fill="black"/>
</svg>
